<mxfile host="Electron" modified="2024-03-04T15:04:29.023Z" agent="Mozilla/5.0 (Windows NT 10.0; Win64; x64) AppleWebKit/537.36 (KHTML, like Gecko) draw.io/23.1.5 Chrome/120.0.6099.109 Electron/28.1.0 Safari/537.36" etag="nVecNhHiv-mINrRHCMef" version="23.1.5" type="device">
  <diagram name="Page-1" id="1kKC4GB8wuoSK3gIe2hd">
    <mxGraphModel dx="3717" dy="1487" grid="1" gridSize="10" guides="1" tooltips="1" connect="1" arrows="1" fold="1" page="1" pageScale="1" pageWidth="850" pageHeight="1100" math="0" shadow="0">
      <root>
        <mxCell id="0" />
        <mxCell id="1" parent="0" />
        <mxCell id="YQJ5HBYqBgE4zqiSxYAV-1" value="1.0" style="swimlane;whiteSpace=wrap;html=1;" parent="1" vertex="1">
          <mxGeometry x="480" y="250" width="200" height="200" as="geometry" />
        </mxCell>
        <mxCell id="YQJ5HBYqBgE4zqiSxYAV-2" value="&lt;font style=&quot;font-size: 24px;&quot;&gt;Login / Register&amp;nbsp;&lt;br&gt;Module&lt;/font&gt;" style="text;html=1;align=center;verticalAlign=middle;resizable=0;points=[];autosize=1;strokeColor=none;fillColor=none;" parent="YQJ5HBYqBgE4zqiSxYAV-1" vertex="1">
          <mxGeometry y="88" width="200" height="70" as="geometry" />
        </mxCell>
        <mxCell id="YQJ5HBYqBgE4zqiSxYAV-3" value="2.0" style="swimlane;whiteSpace=wrap;html=1;" parent="1" vertex="1">
          <mxGeometry x="480" y="720" width="200" height="200" as="geometry" />
        </mxCell>
        <mxCell id="YQJ5HBYqBgE4zqiSxYAV-4" value="&lt;span style=&quot;font-size: 24px;&quot;&gt;Tracker&amp;nbsp;&lt;br&gt;Module&lt;br&gt;&lt;/span&gt;" style="text;html=1;align=center;verticalAlign=middle;resizable=0;points=[];autosize=1;strokeColor=none;fillColor=none;" parent="YQJ5HBYqBgE4zqiSxYAV-3" vertex="1">
          <mxGeometry x="45" y="88" width="110" height="70" as="geometry" />
        </mxCell>
        <mxCell id="YQJ5HBYqBgE4zqiSxYAV-5" value="3.0" style="swimlane;whiteSpace=wrap;html=1;" parent="1" vertex="1">
          <mxGeometry x="480" y="1240" width="200" height="200" as="geometry" />
        </mxCell>
        <mxCell id="YQJ5HBYqBgE4zqiSxYAV-6" value="&lt;font style=&quot;font-size: 24px;&quot;&gt;Request&amp;nbsp;&lt;br&gt;Module&lt;/font&gt;" style="text;html=1;align=center;verticalAlign=middle;resizable=0;points=[];autosize=1;strokeColor=none;fillColor=none;" parent="YQJ5HBYqBgE4zqiSxYAV-5" vertex="1">
          <mxGeometry x="40" y="88" width="120" height="70" as="geometry" />
        </mxCell>
        <mxCell id="YQJ5HBYqBgE4zqiSxYAV-16" value="&lt;font style=&quot;font-size: 18px;&quot;&gt;&amp;nbsp; &amp;nbsp; &amp;nbsp; &amp;nbsp; &amp;nbsp;User info&lt;/font&gt;" style="shape=partialRectangle;whiteSpace=wrap;html=1;bottom=0;right=0;fillColor=none;" parent="1" vertex="1">
          <mxGeometry x="800" y="480" width="150" height="50" as="geometry" />
        </mxCell>
        <mxCell id="YQJ5HBYqBgE4zqiSxYAV-18" value="" style="endArrow=none;html=1;rounded=0;entryX=1;entryY=1;entryDx=0;entryDy=0;" parent="1" target="YQJ5HBYqBgE4zqiSxYAV-16" edge="1">
          <mxGeometry width="50" height="50" relative="1" as="geometry">
            <mxPoint x="800" y="530" as="sourcePoint" />
            <mxPoint x="920" y="530" as="targetPoint" />
          </mxGeometry>
        </mxCell>
        <mxCell id="YQJ5HBYqBgE4zqiSxYAV-20" value="" style="endArrow=none;html=1;rounded=0;" parent="1" edge="1">
          <mxGeometry width="50" height="50" relative="1" as="geometry">
            <mxPoint x="840" y="530" as="sourcePoint" />
            <mxPoint x="840" y="480" as="targetPoint" />
          </mxGeometry>
        </mxCell>
        <mxCell id="YQJ5HBYqBgE4zqiSxYAV-21" value="&lt;font style=&quot;font-size: 14px;&quot;&gt;D1&lt;/font&gt;" style="text;html=1;align=center;verticalAlign=middle;resizable=0;points=[];autosize=1;strokeColor=none;fillColor=none;" parent="1" vertex="1">
          <mxGeometry x="800" y="490" width="40" height="30" as="geometry" />
        </mxCell>
        <mxCell id="YQJ5HBYqBgE4zqiSxYAV-22" value="&lt;font style=&quot;font-size: 18px;&quot;&gt;&lt;span style=&quot;white-space: pre;&quot;&gt;&#x9;&lt;/span&gt;Bank Tracking&amp;nbsp;&lt;br&gt;info&lt;/font&gt;" style="shape=partialRectangle;whiteSpace=wrap;html=1;bottom=0;right=0;fillColor=none;" parent="1" vertex="1">
          <mxGeometry x="800" y="1010" width="180" height="50" as="geometry" />
        </mxCell>
        <mxCell id="YQJ5HBYqBgE4zqiSxYAV-23" value="" style="endArrow=none;html=1;rounded=0;entryX=1;entryY=1;entryDx=0;entryDy=0;" parent="1" target="YQJ5HBYqBgE4zqiSxYAV-22" edge="1">
          <mxGeometry width="50" height="50" relative="1" as="geometry">
            <mxPoint x="800" y="1060" as="sourcePoint" />
            <mxPoint x="920" y="1060" as="targetPoint" />
          </mxGeometry>
        </mxCell>
        <mxCell id="YQJ5HBYqBgE4zqiSxYAV-24" value="" style="endArrow=none;html=1;rounded=0;" parent="1" edge="1">
          <mxGeometry width="50" height="50" relative="1" as="geometry">
            <mxPoint x="840" y="1060" as="sourcePoint" />
            <mxPoint x="840" y="1010" as="targetPoint" />
          </mxGeometry>
        </mxCell>
        <mxCell id="YQJ5HBYqBgE4zqiSxYAV-25" value="&lt;font style=&quot;font-size: 14px;&quot;&gt;D2&lt;/font&gt;" style="text;html=1;align=center;verticalAlign=middle;resizable=0;points=[];autosize=1;strokeColor=none;fillColor=none;" parent="1" vertex="1">
          <mxGeometry x="800" y="1020" width="40" height="30" as="geometry" />
        </mxCell>
        <mxCell id="YQJ5HBYqBgE4zqiSxYAV-26" value="&lt;font style=&quot;font-size: 18px;&quot;&gt;&lt;span style=&quot;white-space: pre;&quot;&gt;&#x9;&lt;/span&gt;Bank request&lt;br&gt;info&lt;/font&gt;" style="shape=partialRectangle;whiteSpace=wrap;html=1;bottom=0;right=0;fillColor=none;" parent="1" vertex="1">
          <mxGeometry x="800" y="1530" width="150" height="50" as="geometry" />
        </mxCell>
        <mxCell id="YQJ5HBYqBgE4zqiSxYAV-27" value="" style="endArrow=none;html=1;rounded=0;entryX=1;entryY=1;entryDx=0;entryDy=0;" parent="1" target="YQJ5HBYqBgE4zqiSxYAV-26" edge="1">
          <mxGeometry width="50" height="50" relative="1" as="geometry">
            <mxPoint x="800" y="1580" as="sourcePoint" />
            <mxPoint x="920" y="1580" as="targetPoint" />
          </mxGeometry>
        </mxCell>
        <mxCell id="YQJ5HBYqBgE4zqiSxYAV-28" value="" style="endArrow=none;html=1;rounded=0;" parent="1" edge="1">
          <mxGeometry width="50" height="50" relative="1" as="geometry">
            <mxPoint x="840" y="1580" as="sourcePoint" />
            <mxPoint x="840" y="1530" as="targetPoint" />
          </mxGeometry>
        </mxCell>
        <mxCell id="YQJ5HBYqBgE4zqiSxYAV-29" value="&lt;font style=&quot;font-size: 14px;&quot;&gt;D3&lt;/font&gt;" style="text;html=1;align=center;verticalAlign=middle;resizable=0;points=[];autosize=1;strokeColor=none;fillColor=none;" parent="1" vertex="1">
          <mxGeometry x="800" y="1540" width="40" height="30" as="geometry" />
        </mxCell>
        <mxCell id="qulUXNxLbwT0LEKijyJz-1" value="&lt;font style=&quot;font-size: 18px;&quot;&gt;User&lt;/font&gt;" style="rounded=0;whiteSpace=wrap;html=1;" parent="1" vertex="1">
          <mxGeometry x="80" y="480" width="120" height="60" as="geometry" />
        </mxCell>
        <mxCell id="qulUXNxLbwT0LEKijyJz-2" value="&lt;font style=&quot;font-size: 18px;&quot;&gt;Bank&lt;/font&gt;" style="rounded=0;whiteSpace=wrap;html=1;" parent="1" vertex="1">
          <mxGeometry x="240" y="820" width="120" height="60" as="geometry" />
        </mxCell>
        <mxCell id="qulUXNxLbwT0LEKijyJz-3" value="&lt;font style=&quot;font-size: 18px;&quot;&gt;Admin&lt;/font&gt;" style="rounded=0;whiteSpace=wrap;html=1;" parent="1" vertex="1">
          <mxGeometry x="1200" y="800" width="120" height="60" as="geometry" />
        </mxCell>
        <mxCell id="qulUXNxLbwT0LEKijyJz-4" value="" style="endArrow=classic;html=1;rounded=0;entryX=0;entryY=0.05;entryDx=0;entryDy=0;entryPerimeter=0;exitX=0.153;exitY=-0.043;exitDx=0;exitDy=0;exitPerimeter=0;" parent="1" source="qulUXNxLbwT0LEKijyJz-1" target="YQJ5HBYqBgE4zqiSxYAV-1" edge="1">
          <mxGeometry width="50" height="50" relative="1" as="geometry">
            <mxPoint x="100" y="470" as="sourcePoint" />
            <mxPoint x="540" y="460" as="targetPoint" />
            <Array as="points">
              <mxPoint x="100" y="260" />
            </Array>
          </mxGeometry>
        </mxCell>
        <mxCell id="qulUXNxLbwT0LEKijyJz-6" value="" style="endArrow=classic;html=1;rounded=0;exitX=0;exitY=0.25;exitDx=0;exitDy=0;entryX=0.34;entryY=-0.043;entryDx=0;entryDy=0;entryPerimeter=0;" parent="1" source="YQJ5HBYqBgE4zqiSxYAV-1" target="qulUXNxLbwT0LEKijyJz-1" edge="1">
          <mxGeometry width="50" height="50" relative="1" as="geometry">
            <mxPoint x="540" y="460" as="sourcePoint" />
            <mxPoint x="490" y="510" as="targetPoint" />
            <Array as="points">
              <mxPoint x="120" y="300" />
            </Array>
          </mxGeometry>
        </mxCell>
        <mxCell id="qulUXNxLbwT0LEKijyJz-7" value="" style="endArrow=classic;html=1;rounded=0;exitX=0.58;exitY=0.01;exitDx=0;exitDy=0;exitPerimeter=0;entryX=0;entryY=0.029;entryDx=0;entryDy=0;entryPerimeter=0;" parent="1" source="qulUXNxLbwT0LEKijyJz-1" target="YQJ5HBYqBgE4zqiSxYAV-2" edge="1">
          <mxGeometry width="50" height="50" relative="1" as="geometry">
            <mxPoint x="490" y="510" as="sourcePoint" />
            <mxPoint x="540" y="460" as="targetPoint" />
            <Array as="points">
              <mxPoint x="150" y="340" />
            </Array>
          </mxGeometry>
        </mxCell>
        <mxCell id="qulUXNxLbwT0LEKijyJz-8" value="" style="endArrow=classic;html=1;rounded=0;exitX=-0.001;exitY=0.66;exitDx=0;exitDy=0;exitPerimeter=0;entryX=0.833;entryY=-0.057;entryDx=0;entryDy=0;entryPerimeter=0;" parent="1" source="YQJ5HBYqBgE4zqiSxYAV-2" target="qulUXNxLbwT0LEKijyJz-1" edge="1">
          <mxGeometry width="50" height="50" relative="1" as="geometry">
            <mxPoint x="540" y="430" as="sourcePoint" />
            <mxPoint x="490" y="480" as="targetPoint" />
            <Array as="points">
              <mxPoint x="180" y="380" />
            </Array>
          </mxGeometry>
        </mxCell>
        <mxCell id="qulUXNxLbwT0LEKijyJz-9" value="" style="endArrow=classic;html=1;rounded=0;exitX=0.8;exitY=0.044;exitDx=0;exitDy=0;entryX=1.016;entryY=0.883;entryDx=0;entryDy=0;entryPerimeter=0;exitPerimeter=0;" parent="1" source="YQJ5HBYqBgE4zqiSxYAV-16" edge="1">
          <mxGeometry width="50" height="50" relative="1" as="geometry">
            <mxPoint x="871.8" y="440.19" as="sourcePoint" />
            <mxPoint x="680" y="359.99999999999994" as="targetPoint" />
            <Array as="points">
              <mxPoint x="920" y="360" />
            </Array>
          </mxGeometry>
        </mxCell>
        <mxCell id="qulUXNxLbwT0LEKijyJz-11" value="" style="endArrow=classic;html=1;rounded=0;" parent="1" edge="1">
          <mxGeometry width="50" height="50" relative="1" as="geometry">
            <mxPoint x="680" y="440" as="sourcePoint" />
            <mxPoint x="830" y="480" as="targetPoint" />
            <Array as="points">
              <mxPoint x="830" y="440" />
            </Array>
          </mxGeometry>
        </mxCell>
        <mxCell id="qulUXNxLbwT0LEKijyJz-10" value="" style="endArrow=classic;html=1;rounded=0;exitX=1.012;exitY=0.894;exitDx=0;exitDy=0;exitPerimeter=0;" parent="1" source="YQJ5HBYqBgE4zqiSxYAV-2" target="YQJ5HBYqBgE4zqiSxYAV-16" edge="1">
          <mxGeometry width="50" height="50" relative="1" as="geometry">
            <mxPoint x="640" y="430" as="sourcePoint" />
            <mxPoint x="590" y="480" as="targetPoint" />
            <Array as="points">
              <mxPoint x="875" y="401" />
            </Array>
          </mxGeometry>
        </mxCell>
        <mxCell id="qulUXNxLbwT0LEKijyJz-12" value="" style="endArrow=classic;html=1;rounded=0;exitX=0.669;exitY=-0.076;exitDx=0;exitDy=0;exitPerimeter=0;" parent="1" source="qulUXNxLbwT0LEKijyJz-3" edge="1">
          <mxGeometry width="50" height="50" relative="1" as="geometry">
            <mxPoint x="1240" y="800" as="sourcePoint" />
            <mxPoint x="680" y="270" as="targetPoint" />
            <Array as="points">
              <mxPoint x="1280" y="270" />
            </Array>
          </mxGeometry>
        </mxCell>
        <mxCell id="qulUXNxLbwT0LEKijyJz-13" value="" style="endArrow=classic;html=1;rounded=0;exitX=0.333;exitY=0;exitDx=0;exitDy=0;exitPerimeter=0;entryX=0.333;entryY=0;entryDx=0;entryDy=0;entryPerimeter=0;" parent="1" target="qulUXNxLbwT0LEKijyJz-3" edge="1">
          <mxGeometry width="50" height="50" relative="1" as="geometry">
            <mxPoint x="680" y="320" as="sourcePoint" />
            <mxPoint x="750" y="450" as="targetPoint" />
            <Array as="points">
              <mxPoint x="1240" y="320" />
            </Array>
          </mxGeometry>
        </mxCell>
        <mxCell id="qulUXNxLbwT0LEKijyJz-14" value="" style="endArrow=classic;html=1;rounded=0;" parent="1" source="qulUXNxLbwT0LEKijyJz-2" edge="1">
          <mxGeometry width="50" height="50" relative="1" as="geometry">
            <mxPoint x="410" y="600" as="sourcePoint" />
            <mxPoint x="570" y="250" as="targetPoint" />
            <Array as="points">
              <mxPoint x="-40" y="850" />
              <mxPoint x="-40" y="140" />
              <mxPoint x="570" y="140" />
            </Array>
          </mxGeometry>
        </mxCell>
        <mxCell id="qulUXNxLbwT0LEKijyJz-16" value="" style="endArrow=classic;html=1;rounded=0;exitX=0;exitY=0.25;exitDx=0;exitDy=0;entryX=0;entryY=0.25;entryDx=0;entryDy=0;" parent="1" target="qulUXNxLbwT0LEKijyJz-2" edge="1">
          <mxGeometry width="50" height="50" relative="1" as="geometry">
            <mxPoint x="520" y="250" as="sourcePoint" />
            <mxPoint x="280" y="920" as="targetPoint" />
            <Array as="points">
              <mxPoint x="520" y="210" />
              <mxPoint y="210" />
              <mxPoint y="835" />
            </Array>
          </mxGeometry>
        </mxCell>
        <mxCell id="KywUS-Uv_Qqskf7HLow2-1" value="" style="endArrow=classic;html=1;rounded=0;" parent="1" edge="1">
          <mxGeometry width="50" height="50" relative="1" as="geometry">
            <mxPoint x="920" y="1010" as="sourcePoint" />
            <mxPoint x="680" y="800" as="targetPoint" />
            <Array as="points">
              <mxPoint x="920" y="800" />
            </Array>
          </mxGeometry>
        </mxCell>
        <mxCell id="KywUS-Uv_Qqskf7HLow2-2" value="" style="endArrow=classic;html=1;rounded=0;exitX=0.5;exitY=0;exitDx=0;exitDy=0;entryX=0.5;entryY=0;entryDx=0;entryDy=0;" parent="1" target="YQJ5HBYqBgE4zqiSxYAV-22" edge="1">
          <mxGeometry width="50" height="50" relative="1" as="geometry">
            <mxPoint x="680" y="850" as="sourcePoint" />
            <mxPoint x="875" y="980" as="targetPoint" />
            <Array as="points">
              <mxPoint x="890" y="850" />
            </Array>
          </mxGeometry>
        </mxCell>
        <mxCell id="KywUS-Uv_Qqskf7HLow2-3" value="" style="endArrow=classic;html=1;rounded=0;exitX=0.25;exitY=0;exitDx=0;exitDy=0;" parent="1" edge="1">
          <mxGeometry width="50" height="50" relative="1" as="geometry">
            <mxPoint x="680" y="900" as="sourcePoint" />
            <mxPoint x="840" y="1010" as="targetPoint" />
            <Array as="points">
              <mxPoint x="840" y="900" />
            </Array>
          </mxGeometry>
        </mxCell>
        <mxCell id="KywUS-Uv_Qqskf7HLow2-4" value="" style="endArrow=classic;html=1;rounded=0;exitX=0.084;exitY=-0.006;exitDx=0;exitDy=0;exitPerimeter=0;" parent="1" source="YQJ5HBYqBgE4zqiSxYAV-26" edge="1">
          <mxGeometry width="50" height="50" relative="1" as="geometry">
            <mxPoint x="921.9499999999998" y="1668.25" as="sourcePoint" />
            <mxPoint x="680" y="1430" as="targetPoint" />
            <Array as="points">
              <mxPoint x="813" y="1430" />
            </Array>
          </mxGeometry>
        </mxCell>
        <mxCell id="KywUS-Uv_Qqskf7HLow2-5" value="" style="endArrow=classic;html=1;rounded=0;exitX=0.038;exitY=-0.097;exitDx=0;exitDy=0;exitPerimeter=0;" parent="1" edge="1">
          <mxGeometry width="50" height="50" relative="1" as="geometry">
            <mxPoint x="548.48" y="1442.91" as="sourcePoint" />
            <mxPoint x="799.9999999999995" y="1540.0000000000002" as="targetPoint" />
            <Array as="points">
              <mxPoint x="548.48" y="1539.91" />
            </Array>
          </mxGeometry>
        </mxCell>
        <mxCell id="KywUS-Uv_Qqskf7HLow2-6" value="" style="endArrow=classic;html=1;rounded=0;exitX=0.008;exitY=0.969;exitDx=0;exitDy=0;exitPerimeter=0;entryX=0.008;entryY=0.969;entryDx=0;entryDy=0;entryPerimeter=0;" parent="1" target="YQJ5HBYqBgE4zqiSxYAV-29" edge="1">
          <mxGeometry width="50" height="50" relative="1" as="geometry">
            <mxPoint x="500" y="1440" as="sourcePoint" />
            <mxPoint x="830" y="1520" as="targetPoint" />
            <Array as="points">
              <mxPoint x="500" y="1570" />
            </Array>
          </mxGeometry>
        </mxCell>
        <mxCell id="KywUS-Uv_Qqskf7HLow2-7" value="" style="endArrow=classic;html=1;rounded=0;exitX=0.381;exitY=0.006;exitDx=0;exitDy=0;entryX=1;entryY=0.25;entryDx=0;entryDy=0;exitPerimeter=0;" parent="1" source="YQJ5HBYqBgE4zqiSxYAV-3" target="qulUXNxLbwT0LEKijyJz-1" edge="1">
          <mxGeometry width="50" height="50" relative="1" as="geometry">
            <mxPoint x="710" y="610" as="sourcePoint" />
            <mxPoint x="660" y="660" as="targetPoint" />
            <Array as="points">
              <mxPoint x="556" y="495" />
            </Array>
          </mxGeometry>
        </mxCell>
        <mxCell id="KywUS-Uv_Qqskf7HLow2-8" value="" style="endArrow=classic;html=1;rounded=0;exitX=0.126;exitY=-0.009;exitDx=0;exitDy=0;entryX=1;entryY=0.75;entryDx=0;entryDy=0;exitPerimeter=0;" parent="1" source="YQJ5HBYqBgE4zqiSxYAV-3" target="qulUXNxLbwT0LEKijyJz-1" edge="1">
          <mxGeometry width="50" height="50" relative="1" as="geometry">
            <mxPoint x="700" y="650" as="sourcePoint" />
            <mxPoint x="650" y="700" as="targetPoint" />
            <Array as="points">
              <mxPoint x="505" y="525" />
            </Array>
          </mxGeometry>
        </mxCell>
        <mxCell id="KywUS-Uv_Qqskf7HLow2-9" value="" style="endArrow=classic;html=1;rounded=0;exitX=0.829;exitY=1.054;exitDx=0;exitDy=0;exitPerimeter=0;entryX=0.003;entryY=0.053;entryDx=0;entryDy=0;entryPerimeter=0;" parent="1" source="qulUXNxLbwT0LEKijyJz-1" target="YQJ5HBYqBgE4zqiSxYAV-3" edge="1">
          <mxGeometry width="50" height="50" relative="1" as="geometry">
            <mxPoint x="700" y="650" as="sourcePoint" />
            <mxPoint x="650" y="700" as="targetPoint" />
            <Array as="points">
              <mxPoint x="179" y="630" />
              <mxPoint x="179" y="730" />
            </Array>
          </mxGeometry>
        </mxCell>
        <mxCell id="KywUS-Uv_Qqskf7HLow2-10" value="" style="endArrow=classic;html=1;rounded=0;entryX=0.656;entryY=1.054;entryDx=0;entryDy=0;entryPerimeter=0;exitX=0.656;exitY=1.054;exitDx=0;exitDy=0;exitPerimeter=0;" parent="1" source="qulUXNxLbwT0LEKijyJz-1" edge="1">
          <mxGeometry width="50" height="50" relative="1" as="geometry">
            <mxPoint x="700" y="650" as="sourcePoint" />
            <mxPoint x="480" y="760" as="targetPoint" />
            <Array as="points">
              <mxPoint x="160" y="760" />
            </Array>
          </mxGeometry>
        </mxCell>
        <mxCell id="KywUS-Uv_Qqskf7HLow2-11" value="" style="endArrow=classic;html=1;rounded=0;entryX=0.319;entryY=1.054;entryDx=0;entryDy=0;entryPerimeter=0;" parent="1" target="qulUXNxLbwT0LEKijyJz-1" edge="1">
          <mxGeometry width="50" height="50" relative="1" as="geometry">
            <mxPoint x="480" y="790" as="sourcePoint" />
            <mxPoint x="590" y="630" as="targetPoint" />
            <Array as="points">
              <mxPoint x="120" y="790" />
            </Array>
          </mxGeometry>
        </mxCell>
        <mxCell id="KywUS-Uv_Qqskf7HLow2-12" value="" style="endArrow=classic;html=1;rounded=0;entryX=0;entryY=0.75;entryDx=0;entryDy=0;" parent="1" target="qulUXNxLbwT0LEKijyJz-2" edge="1">
          <mxGeometry width="50" height="50" relative="1" as="geometry">
            <mxPoint x="480" y="1430" as="sourcePoint" />
            <mxPoint x="550" y="1070" as="targetPoint" />
            <Array as="points">
              <mxPoint y="1430" />
              <mxPoint y="865" />
            </Array>
          </mxGeometry>
        </mxCell>
        <mxCell id="KywUS-Uv_Qqskf7HLow2-13" value="" style="endArrow=classic;html=1;rounded=0;exitX=0;exitY=1;exitDx=0;exitDy=0;entryX=0;entryY=0.75;entryDx=0;entryDy=0;" parent="1" source="qulUXNxLbwT0LEKijyJz-2" target="YQJ5HBYqBgE4zqiSxYAV-5" edge="1">
          <mxGeometry width="50" height="50" relative="1" as="geometry">
            <mxPoint x="550" y="930" as="sourcePoint" />
            <mxPoint x="500" y="980" as="targetPoint" />
            <Array as="points">
              <mxPoint x="40" y="880" />
              <mxPoint x="40" y="1390" />
            </Array>
          </mxGeometry>
        </mxCell>
        <mxCell id="KywUS-Uv_Qqskf7HLow2-14" value="" style="endArrow=classic;html=1;rounded=0;entryX=0.875;entryY=1.044;entryDx=0;entryDy=0;entryPerimeter=0;exitX=0.875;exitY=1.044;exitDx=0;exitDy=0;exitPerimeter=0;" parent="1" source="qulUXNxLbwT0LEKijyJz-3" edge="1">
          <mxGeometry width="50" height="50" relative="1" as="geometry">
            <mxPoint x="870" y="1120" as="sourcePoint" />
            <mxPoint x="680" y="1400" as="targetPoint" />
            <Array as="points">
              <mxPoint x="1305" y="1400" />
            </Array>
          </mxGeometry>
        </mxCell>
        <mxCell id="KywUS-Uv_Qqskf7HLow2-15" value="" style="endArrow=classic;html=1;rounded=0;entryX=0.653;entryY=1.044;entryDx=0;entryDy=0;entryPerimeter=0;exitX=0.653;exitY=1.044;exitDx=0;exitDy=0;exitPerimeter=0;" parent="1" source="qulUXNxLbwT0LEKijyJz-3" edge="1">
          <mxGeometry width="50" height="50" relative="1" as="geometry">
            <mxPoint x="870" y="1120" as="sourcePoint" />
            <mxPoint x="680" y="1360" as="targetPoint" />
            <Array as="points">
              <mxPoint x="1280" y="1360" />
            </Array>
          </mxGeometry>
        </mxCell>
        <mxCell id="KywUS-Uv_Qqskf7HLow2-16" value="" style="endArrow=classic;html=1;rounded=0;entryX=0.368;entryY=0.973;entryDx=0;entryDy=0;entryPerimeter=0;exitX=0.368;exitY=0.973;exitDx=0;exitDy=0;exitPerimeter=0;" parent="1" source="qulUXNxLbwT0LEKijyJz-3" edge="1">
          <mxGeometry width="50" height="50" relative="1" as="geometry">
            <mxPoint x="870" y="1120" as="sourcePoint" />
            <mxPoint x="680" y="1320" as="targetPoint" />
            <Array as="points">
              <mxPoint x="1240" y="1320" />
            </Array>
          </mxGeometry>
        </mxCell>
        <mxCell id="KywUS-Uv_Qqskf7HLow2-17" value="" style="endArrow=classic;html=1;rounded=0;entryX=0.114;entryY=1.074;entryDx=0;entryDy=0;entryPerimeter=0;" parent="1" target="qulUXNxLbwT0LEKijyJz-3" edge="1">
          <mxGeometry width="50" height="50" relative="1" as="geometry">
            <mxPoint x="680" y="1280" as="sourcePoint" />
            <mxPoint x="1230" y="850" as="targetPoint" />
            <Array as="points">
              <mxPoint x="1210" y="1280" />
            </Array>
          </mxGeometry>
        </mxCell>
        <mxCell id="KywUS-Uv_Qqskf7HLow2-18" value="" style="endArrow=classic;html=1;rounded=0;entryX=0.123;entryY=1.066;entryDx=0;entryDy=0;entryPerimeter=0;" parent="1" target="qulUXNxLbwT0LEKijyJz-2" edge="1">
          <mxGeometry width="50" height="50" relative="1" as="geometry">
            <mxPoint x="480" y="1360" as="sourcePoint" />
            <mxPoint x="380" y="1060" as="targetPoint" />
            <Array as="points">
              <mxPoint x="255" y="1360" />
            </Array>
          </mxGeometry>
        </mxCell>
        <mxCell id="KywUS-Uv_Qqskf7HLow2-19" value="" style="endArrow=classic;html=1;rounded=0;exitX=0.319;exitY=1.05;exitDx=0;exitDy=0;exitPerimeter=0;" parent="1" source="qulUXNxLbwT0LEKijyJz-2" edge="1">
          <mxGeometry width="50" height="50" relative="1" as="geometry">
            <mxPoint x="270" y="890" as="sourcePoint" />
            <mxPoint x="480" y="1320" as="targetPoint" />
            <Array as="points">
              <mxPoint x="280" y="1320" />
            </Array>
          </mxGeometry>
        </mxCell>
        <mxCell id="dyoGDJdga3XXY6l09NqK-1" value="&lt;font style=&quot;font-size: 18px;&quot;&gt;User Register Request&lt;/font&gt;" style="text;html=1;align=center;verticalAlign=middle;resizable=0;points=[];autosize=1;strokeColor=none;fillColor=none;" parent="1" vertex="1">
          <mxGeometry x="165" y="223" width="210" height="40" as="geometry" />
        </mxCell>
        <mxCell id="dyoGDJdga3XXY6l09NqK-2" value="&lt;font style=&quot;font-size: 18px;&quot;&gt;User Register Response&lt;/font&gt;" style="text;html=1;align=center;verticalAlign=middle;resizable=0;points=[];autosize=1;strokeColor=none;fillColor=none;" parent="1" vertex="1">
          <mxGeometry x="160" y="265" width="220" height="40" as="geometry" />
        </mxCell>
        <mxCell id="dyoGDJdga3XXY6l09NqK-3" value="&lt;font style=&quot;font-size: 18px;&quot;&gt;User Login Request&lt;/font&gt;" style="text;html=1;align=center;verticalAlign=middle;resizable=0;points=[];autosize=1;strokeColor=none;fillColor=none;" parent="1" vertex="1">
          <mxGeometry x="185" y="305" width="180" height="40" as="geometry" />
        </mxCell>
        <mxCell id="dyoGDJdga3XXY6l09NqK-4" value="&lt;font style=&quot;font-size: 18px;&quot;&gt;User Login Response&lt;/font&gt;" style="text;html=1;align=center;verticalAlign=middle;resizable=0;points=[];autosize=1;strokeColor=none;fillColor=none;" parent="1" vertex="1">
          <mxGeometry x="190" y="345" width="200" height="40" as="geometry" />
        </mxCell>
        <mxCell id="dyoGDJdga3XXY6l09NqK-5" value="&lt;font style=&quot;font-size: 18px;&quot;&gt;Admin Login Request&lt;/font&gt;" style="text;html=1;align=center;verticalAlign=middle;resizable=0;points=[];autosize=1;strokeColor=none;fillColor=none;" parent="1" vertex="1">
          <mxGeometry x="840" y="235" width="200" height="40" as="geometry" />
        </mxCell>
        <mxCell id="dyoGDJdga3XXY6l09NqK-6" value="&lt;font style=&quot;font-size: 18px;&quot;&gt;Admin Login Response&lt;/font&gt;" style="text;html=1;align=center;verticalAlign=middle;resizable=0;points=[];autosize=1;strokeColor=none;fillColor=none;" parent="1" vertex="1">
          <mxGeometry x="845" y="285" width="210" height="40" as="geometry" />
        </mxCell>
        <mxCell id="dyoGDJdga3XXY6l09NqK-7" value="&lt;font style=&quot;font-size: 18px;&quot;&gt;User Detail Response&lt;/font&gt;" style="text;html=1;align=center;verticalAlign=middle;resizable=0;points=[];autosize=1;strokeColor=none;fillColor=none;" parent="1" vertex="1">
          <mxGeometry x="680" y="330" width="200" height="40" as="geometry" />
        </mxCell>
        <mxCell id="dyoGDJdga3XXY6l09NqK-8" value="&lt;font style=&quot;font-size: 18px;&quot;&gt;User Detail&lt;/font&gt;" style="text;html=1;align=center;verticalAlign=middle;resizable=0;points=[];autosize=1;strokeColor=none;fillColor=none;" parent="1" vertex="1">
          <mxGeometry x="705" y="405" width="110" height="40" as="geometry" />
        </mxCell>
        <mxCell id="dyoGDJdga3XXY6l09NqK-9" value="&lt;font style=&quot;font-size: 18px;&quot;&gt;User Detail Request&lt;/font&gt;" style="text;html=1;align=center;verticalAlign=middle;resizable=0;points=[];autosize=1;strokeColor=none;fillColor=none;" parent="1" vertex="1">
          <mxGeometry x="680" y="365" width="180" height="40" as="geometry" />
        </mxCell>
        <mxCell id="dyoGDJdga3XXY6l09NqK-10" value="&lt;font style=&quot;font-size: 18px;&quot;&gt;Bank Login Request&lt;/font&gt;" style="text;html=1;align=center;verticalAlign=middle;resizable=0;points=[];autosize=1;strokeColor=none;fillColor=none;" parent="1" vertex="1">
          <mxGeometry x="170" y="105" width="190" height="40" as="geometry" />
        </mxCell>
        <mxCell id="dyoGDJdga3XXY6l09NqK-11" value="&lt;font style=&quot;font-size: 18px;&quot;&gt;Bank Login Response&lt;/font&gt;" style="text;html=1;align=center;verticalAlign=middle;resizable=0;points=[];autosize=1;strokeColor=none;fillColor=none;" parent="1" vertex="1">
          <mxGeometry x="165" y="175" width="200" height="40" as="geometry" />
        </mxCell>
        <mxCell id="dyoGDJdga3XXY6l09NqK-12" value="&lt;div style=&quot;text-align: center;&quot;&gt;&lt;span style=&quot;background-color: initial;&quot;&gt;&lt;font style=&quot;font-size: 18px;&quot;&gt;Bank Tracking Detail&lt;/font&gt;&lt;/span&gt;&lt;/div&gt;" style="text;whiteSpace=wrap;html=1;" parent="1" vertex="1">
          <mxGeometry x="690" y="870" width="180" height="40" as="geometry" />
        </mxCell>
        <mxCell id="dyoGDJdga3XXY6l09NqK-13" value="&lt;div style=&quot;text-align: center;&quot;&gt;&lt;span style=&quot;background-color: initial;&quot;&gt;&lt;font style=&quot;font-size: 18px;&quot;&gt;Tracking Detail Request&lt;/font&gt;&lt;/span&gt;&lt;/div&gt;" style="text;whiteSpace=wrap;html=1;" parent="1" vertex="1">
          <mxGeometry x="710" y="820" width="200" height="40" as="geometry" />
        </mxCell>
        <mxCell id="dyoGDJdga3XXY6l09NqK-14" value="&lt;div style=&quot;text-align: center;&quot;&gt;&lt;span style=&quot;background-color: initial;&quot;&gt;&lt;font style=&quot;font-size: 18px;&quot;&gt;Tracking Detail Response&lt;/font&gt;&lt;/span&gt;&lt;/div&gt;" style="text;whiteSpace=wrap;html=1;" parent="1" vertex="1">
          <mxGeometry x="710" y="770" width="210" height="40" as="geometry" />
        </mxCell>
        <mxCell id="dyoGDJdga3XXY6l09NqK-15" value="&lt;div style=&quot;text-align: center;&quot;&gt;&lt;font style=&quot;font-size: 18px;&quot;&gt;Bank Request Detail&lt;/font&gt;&lt;/div&gt;" style="text;whiteSpace=wrap;html=1;" parent="1" vertex="1">
          <mxGeometry x="620" y="1510" width="170" height="40" as="geometry" />
        </mxCell>
        <mxCell id="dyoGDJdga3XXY6l09NqK-17" value="&lt;div style=&quot;text-align: center;&quot;&gt;&lt;span style=&quot;background-color: initial;&quot;&gt;&lt;font style=&quot;font-size: 18px;&quot;&gt;Request Detail&lt;/font&gt;&lt;/span&gt;&lt;/div&gt;" style="text;whiteSpace=wrap;html=1;" parent="1" vertex="1">
          <mxGeometry x="640" y="1540" width="130" height="40" as="geometry" />
        </mxCell>
        <mxCell id="dyoGDJdga3XXY6l09NqK-18" value="&lt;div style=&quot;text-align: center;&quot;&gt;&lt;span style=&quot;background-color: initial;&quot;&gt;&lt;font style=&quot;font-size: 18px;&quot;&gt;Request Detail Response&lt;/font&gt;&lt;/span&gt;&lt;/div&gt;" style="text;whiteSpace=wrap;html=1;" parent="1" vertex="1">
          <mxGeometry x="695" y="1400" width="225" height="40" as="geometry" />
        </mxCell>
        <mxCell id="dyoGDJdga3XXY6l09NqK-20" value="&lt;font style=&quot;font-size: 18px;&quot;&gt;Shows bank interest rate&lt;/font&gt;" style="text;html=1;align=center;verticalAlign=middle;resizable=0;points=[];autosize=1;strokeColor=none;fillColor=none;" parent="1" vertex="1">
          <mxGeometry x="210" y="463" width="220" height="40" as="geometry" />
        </mxCell>
        <mxCell id="dyoGDJdga3XXY6l09NqK-21" value="&lt;font style=&quot;font-size: 18px;&quot;&gt;Shows favorite bank list&lt;/font&gt;" style="text;html=1;align=center;verticalAlign=middle;resizable=0;points=[];autosize=1;strokeColor=none;fillColor=none;" parent="1" vertex="1">
          <mxGeometry x="215" y="495" width="210" height="40" as="geometry" />
        </mxCell>
        <mxCell id="dyoGDJdga3XXY6l09NqK-22" value="&lt;font style=&quot;font-size: 18px;&quot;&gt;Shows calculated interest history&lt;/font&gt;" style="text;html=1;align=center;verticalAlign=middle;resizable=0;points=[];autosize=1;strokeColor=none;fillColor=none;" parent="1" vertex="1">
          <mxGeometry x="165" y="755" width="290" height="40" as="geometry" />
        </mxCell>
        <mxCell id="dyoGDJdga3XXY6l09NqK-23" value="&lt;font style=&quot;font-size: 18px;&quot;&gt;Adds favorite bank&amp;nbsp;&lt;/font&gt;" style="text;html=1;align=center;verticalAlign=middle;resizable=0;points=[];autosize=1;strokeColor=none;fillColor=none;" parent="1" vertex="1">
          <mxGeometry x="210" y="693" width="180" height="40" as="geometry" />
        </mxCell>
        <mxCell id="dyoGDJdga3XXY6l09NqK-24" value="&lt;font style=&quot;font-size: 18px;&quot;&gt;Saves calculated bank interest&amp;nbsp;&lt;/font&gt;" style="text;html=1;align=center;verticalAlign=middle;resizable=0;points=[];autosize=1;strokeColor=none;fillColor=none;" parent="1" vertex="1">
          <mxGeometry x="175" y="725" width="270" height="40" as="geometry" />
        </mxCell>
        <mxCell id="n7VHk3XnLc4sRySz3_we-1" value="&lt;font style=&quot;font-size: 18px;&quot;&gt;Bank History Request&lt;/font&gt;" style="text;html=1;align=center;verticalAlign=middle;resizable=0;points=[];autosize=1;strokeColor=none;fillColor=none;" parent="1" vertex="1">
          <mxGeometry x="280" y="1285" width="200" height="40" as="geometry" />
        </mxCell>
        <mxCell id="n7VHk3XnLc4sRySz3_we-2" value="&lt;font style=&quot;font-size: 18px;&quot;&gt;Bank History Response&lt;/font&gt;" style="text;html=1;align=center;verticalAlign=middle;resizable=0;points=[];autosize=1;strokeColor=none;fillColor=none;" parent="1" vertex="1">
          <mxGeometry x="275" y="1325" width="210" height="40" as="geometry" />
        </mxCell>
        <mxCell id="n7VHk3XnLc4sRySz3_we-3" value="&lt;font style=&quot;font-size: 18px;&quot;&gt;Request for editing interest&lt;/font&gt;" style="text;html=1;align=center;verticalAlign=middle;resizable=0;points=[];autosize=1;strokeColor=none;fillColor=none;" parent="1" vertex="1">
          <mxGeometry x="245" y="1355" width="240" height="40" as="geometry" />
        </mxCell>
        <mxCell id="n7VHk3XnLc4sRySz3_we-4" value="&lt;font style=&quot;font-size: 18px;&quot;&gt;Shows requested interest status&lt;/font&gt;" style="text;html=1;align=center;verticalAlign=middle;resizable=0;points=[];autosize=1;strokeColor=none;fillColor=none;" parent="1" vertex="1">
          <mxGeometry x="205" y="1395" width="280" height="40" as="geometry" />
        </mxCell>
        <mxCell id="n7VHk3XnLc4sRySz3_we-5" value="&lt;font style=&quot;font-size: 18px;&quot;&gt;Shows requested interest&lt;/font&gt;" style="text;html=1;align=center;verticalAlign=middle;resizable=0;points=[];autosize=1;strokeColor=none;fillColor=none;" parent="1" vertex="1">
          <mxGeometry x="790" y="1245" width="230" height="40" as="geometry" />
        </mxCell>
        <mxCell id="n7VHk3XnLc4sRySz3_we-6" value="&lt;font style=&quot;font-size: 18px;&quot;&gt;Updates requested interest&lt;/font&gt;" style="text;html=1;align=center;verticalAlign=middle;resizable=0;points=[];autosize=1;strokeColor=none;fillColor=none;" parent="1" vertex="1">
          <mxGeometry x="785" y="1285" width="240" height="40" as="geometry" />
        </mxCell>
        <mxCell id="n7VHk3XnLc4sRySz3_we-7" value="&lt;font style=&quot;font-size: 18px;&quot;&gt;Adds new bank detail&lt;/font&gt;" style="text;html=1;align=center;verticalAlign=middle;resizable=0;points=[];autosize=1;strokeColor=none;fillColor=none;" parent="1" vertex="1">
          <mxGeometry x="810" y="1325" width="190" height="40" as="geometry" />
        </mxCell>
        <mxCell id="n7VHk3XnLc4sRySz3_we-8" value="&lt;font style=&quot;font-size: 18px;&quot;&gt;Updates bank detail&lt;/font&gt;" style="text;html=1;align=center;verticalAlign=middle;resizable=0;points=[];autosize=1;strokeColor=none;fillColor=none;" parent="1" vertex="1">
          <mxGeometry x="815" y="1365" width="180" height="40" as="geometry" />
        </mxCell>
      </root>
    </mxGraphModel>
  </diagram>
</mxfile>
